<svg width="71" height="32" viewBox="0 0 71 32" fill="none" xmlns="http://www.w3.org/2000/svg">
<rect x="1.76074" y="1" width="67.9981" height="30" rx="9" fill="#FDFDFF" stroke="#FDFDFF" stroke-width="2"/>
<path d="M39.7026 22.84C39.8626 22.84 39.9959 22.9 40.1026 23.02C40.2226 23.1267 40.2826 23.26 40.2826 23.42C40.2826 23.5933 40.2226 23.7333 40.1026 23.84C39.9959 23.9467 39.8626 24 39.7026 24H32.2026C32.0293 24 31.8759 23.9533 31.7426 23.86C31.6226 23.7533 31.5626 23.6 31.5626 23.4C31.5626 23.2533 31.6159 23.1133 31.7226 22.98L36.3426 17.88C37.0759 17.08 37.6226 16.3467 37.9826 15.68C38.3559 15 38.5426 14.3933 38.5426 13.86C38.5426 12.98 38.2759 12.2733 37.7426 11.74C37.2093 11.2067 36.4893 10.94 35.5826 10.94C35.1693 10.94 34.7559 11.0267 34.3426 11.2C33.9426 11.3733 33.5826 11.6 33.2626 11.88C32.9559 12.16 32.7159 12.48 32.5426 12.84C32.4626 12.9733 32.3759 13.0667 32.2826 13.12C32.2026 13.1733 32.1093 13.2 32.0026 13.2C31.8426 13.2 31.7026 13.1533 31.5826 13.06C31.4626 12.9533 31.4026 12.8267 31.4026 12.68C31.4026 12.5867 31.4226 12.4933 31.4626 12.4C31.5159 12.3067 31.5893 12.2 31.6826 12.08C31.9226 11.6667 32.2559 11.2867 32.6826 10.94C33.1093 10.5933 33.5826 10.32 34.1026 10.12C34.6359 9.90667 35.1559 9.8 35.6626 9.8C36.5159 9.8 37.2493 9.96667 37.8626 10.3C38.4893 10.62 38.9693 11.08 39.3026 11.68C39.6493 12.2667 39.8226 12.9667 39.8226 13.78C39.8226 14.4733 39.6026 15.2333 39.1626 16.06C38.7359 16.8733 38.0959 17.7533 37.2426 18.7L33.3426 23.08L33.1426 22.84H39.7026Z" fill="#5F8493"/>
</svg>
