<svg width="70" height="32" viewBox="0 0 70 32" fill="none" xmlns="http://www.w3.org/2000/svg">
<rect width="69.9981" height="32" rx="10" fill="#FDFDFF"/>
<path d="M35.8178 24C35.6311 24 35.4778 23.94 35.3578 23.82C35.2378 23.7 35.1778 23.56 35.1778 23.4V11.36L35.3978 11.56L32.7378 13.34C32.6311 13.42 32.5178 13.46 32.3978 13.46C32.2378 13.46 32.0911 13.3933 31.9578 13.26C31.8378 13.1267 31.7778 12.98 31.7778 12.82C31.7778 12.6067 31.8845 12.44 32.0978 12.32L35.4378 10.1C35.5178 10.0467 35.5978 10.0133 35.6778 10C35.7711 9.98667 35.8511 9.98667 35.9178 10C36.0911 10.0133 36.2245 10.08 36.3178 10.2C36.4111 10.3067 36.4578 10.44 36.4578 10.6V23.4C36.4578 23.56 36.3978 23.7 36.2778 23.82C36.1578 23.94 36.0045 24 35.8178 24Z" fill="#5F8493"/>
</svg>
