<svg width="71" height="32" viewBox="0 0 71 32" fill="none" xmlns="http://www.w3.org/2000/svg">
<rect x="1.61963" y="1" width="67.9981" height="30" rx="9" stroke="#FDFDFF" stroke-width="2"/>
<path d="M39.5615 22.84C39.7215 22.84 39.8548 22.9 39.9615 23.02C40.0815 23.1267 40.1415 23.26 40.1415 23.42C40.1415 23.5933 40.0815 23.7333 39.9615 23.84C39.8548 23.9467 39.7215 24 39.5615 24H32.0615C31.8882 24 31.7348 23.9533 31.6015 23.86C31.4815 23.7533 31.4215 23.6 31.4215 23.4C31.4215 23.2533 31.4748 23.1133 31.5815 22.98L36.2015 17.88C36.9348 17.08 37.4815 16.3467 37.8415 15.68C38.2148 15 38.4015 14.3933 38.4015 13.86C38.4015 12.98 38.1348 12.2733 37.6015 11.74C37.0682 11.2067 36.3482 10.94 35.4415 10.94C35.0282 10.94 34.6148 11.0267 34.2015 11.2C33.8015 11.3733 33.4415 11.6 33.1215 11.88C32.8148 12.16 32.5748 12.48 32.4015 12.84C32.3215 12.9733 32.2348 13.0667 32.1415 13.12C32.0615 13.1733 31.9682 13.2 31.8615 13.2C31.7015 13.2 31.5615 13.1533 31.4415 13.06C31.3215 12.9533 31.2615 12.8267 31.2615 12.68C31.2615 12.5867 31.2815 12.4933 31.3215 12.4C31.3748 12.3067 31.4482 12.2 31.5415 12.08C31.7815 11.6667 32.1148 11.2867 32.5415 10.94C32.9682 10.5933 33.4415 10.32 33.9615 10.12C34.4948 9.90667 35.0148 9.8 35.5215 9.8C36.3748 9.8 37.1082 9.96667 37.7215 10.3C38.3482 10.62 38.8282 11.08 39.1615 11.68C39.5082 12.2667 39.6815 12.9667 39.6815 13.78C39.6815 14.4733 39.4615 15.2333 39.0215 16.06C38.5948 16.8733 37.9548 17.7533 37.1015 18.7L33.2015 23.08L33.0015 22.84H39.5615Z" fill="#FDFDFF"/>
</svg>
