<svg width="71" height="32" viewBox="0 0 71 32" fill="none" xmlns="http://www.w3.org/2000/svg">
<rect x="1.23926" y="1" width="67.9981" height="30" rx="9" stroke="#FDFDFF" stroke-width="2"/>
<path d="M31.7741 21.94C31.8408 21.94 31.9074 21.9533 31.9741 21.98C32.0541 22.0067 32.1474 22.0667 32.2541 22.16C32.5341 22.4533 32.8674 22.68 33.2541 22.84C33.6408 22.9867 34.0808 23.06 34.5741 23.06C35.2274 23.06 35.8208 22.9133 36.3541 22.62C36.9008 22.3267 37.3341 21.92 37.6541 21.4C37.9741 20.8667 38.1341 20.26 38.1341 19.58C38.1341 18.8067 37.9608 18.1867 37.6141 17.72C37.2808 17.24 36.8474 16.8867 36.3141 16.66C35.7941 16.42 35.2608 16.3 34.7141 16.3C34.5674 16.3 34.4208 16.3133 34.2741 16.34C34.1408 16.3533 34.0141 16.3733 33.8941 16.4C33.7741 16.4267 33.6808 16.44 33.6141 16.44C33.4408 16.44 33.3074 16.3867 33.2141 16.28C33.1208 16.16 33.0741 16.0133 33.0741 15.84C33.0741 15.7467 33.0941 15.6667 33.1341 15.6C33.1741 15.52 33.2274 15.4333 33.2941 15.34L37.3541 10.92L37.5941 11.24H31.5341C31.3741 11.24 31.2341 11.1867 31.1141 11.08C31.0074 10.96 30.9541 10.82 30.9541 10.66C30.9541 10.5 31.0074 10.3667 31.1141 10.26C31.2341 10.1533 31.3741 10.1 31.5341 10.1H38.2541C38.4808 10.1 38.6408 10.1733 38.7341 10.32C38.8274 10.4533 38.8741 10.5867 38.8741 10.72C38.8741 10.8 38.8541 10.88 38.8141 10.96C38.7741 11.0267 38.7208 11.1 38.6541 11.18L34.5941 15.6L34.1541 15.34C34.1941 15.3 34.3274 15.26 34.5541 15.22C34.7941 15.1667 34.9808 15.14 35.1141 15.14C35.8474 15.14 36.5341 15.3133 37.1741 15.66C37.8274 16.0067 38.3541 16.5067 38.7541 17.16C39.1674 17.8 39.3741 18.5933 39.3741 19.54C39.3741 20.4733 39.1541 21.2933 38.7141 22C38.2741 22.6933 37.6808 23.2333 36.9341 23.62C36.1874 24.0067 35.3608 24.2 34.4541 24.2C33.9074 24.2 33.3674 24.1067 32.8341 23.92C32.3008 23.7333 31.8341 23.4533 31.4341 23.08C31.3408 23 31.2741 22.92 31.2341 22.84C31.1941 22.76 31.1741 22.68 31.1741 22.6C31.1741 22.44 31.2274 22.2933 31.3341 22.16C31.4541 22.0133 31.6008 21.94 31.7741 21.94Z" fill="#FDFDFF"/>
</svg>
