<svg width="187" height="187" viewBox="0 0 187 187" fill="none" xmlns="http://www.w3.org/2000/svg">
<g filter="url(#filter0_d_248_241)">
<path d="M4 10C4 4.47716 8.47715 0 14 0H173C178.523 0 183 4.47715 183 10V169C183 174.523 178.523 179 173 179H14C8.47716 179 4 174.523 4 169V10Z" fill="#FDFDFF"/>
</g>
<path d="M21.48 134C21.5733 134 21.6667 134.02 21.76 134.06C21.8667 134.1 21.9533 134.167 22.02 134.26L27.54 142.54L27 142.52L32.54 134.26C32.6867 134.06 32.8667 133.973 33.08 134C33.24 134 33.3733 134.06 33.48 134.18C33.6 134.287 33.66 134.427 33.66 134.6V147.4C33.66 147.56 33.6 147.7 33.48 147.82C33.36 147.94 33.2133 148 33.04 148C32.8533 148 32.7 147.94 32.58 147.82C32.46 147.7 32.4 147.56 32.4 147.4V135.82L32.76 135.86L27.7 143.52C27.66 143.6 27.6 143.667 27.52 143.72C27.44 143.76 27.3467 143.773 27.24 143.76C27.1467 143.773 27.0533 143.76 26.96 143.72C26.88 143.667 26.8133 143.6 26.76 143.52L21.68 135.78L22.06 135.52V147.4C22.06 147.56 22 147.7 21.88 147.82C21.7733 147.94 21.6333 148 21.46 148C21.2867 148 21.1467 147.94 21.04 147.82C20.9333 147.7 20.88 147.56 20.88 147.4V134.6C20.88 134.44 20.9333 134.3 21.04 134.18C21.16 134.06 21.3067 134 21.48 134ZM46.643 142.88C46.643 143.893 46.423 144.807 45.983 145.62C45.543 146.42 44.943 147.053 44.183 147.52C43.423 147.973 42.5563 148.2 41.583 148.2C40.6363 148.2 39.7763 147.973 39.003 147.52C38.243 147.053 37.6363 146.42 37.183 145.62C36.743 144.807 36.523 143.893 36.523 142.88C36.523 141.853 36.743 140.94 37.183 140.14C37.6363 139.34 38.243 138.707 39.003 138.24C39.7763 137.773 40.6363 137.54 41.583 137.54C42.5563 137.54 43.423 137.773 44.183 138.24C44.943 138.707 45.543 139.34 45.983 140.14C46.423 140.94 46.643 141.853 46.643 142.88ZM45.443 142.88C45.443 142.067 45.2763 141.347 44.943 140.72C44.6096 140.08 44.1496 139.58 43.563 139.22C42.9896 138.847 42.3296 138.66 41.583 138.66C40.863 138.66 40.2096 138.847 39.623 139.22C39.0363 139.58 38.5696 140.08 38.223 140.72C37.8896 141.347 37.723 142.067 37.723 142.88C37.723 143.693 37.8896 144.413 38.223 145.04C38.5696 145.667 39.0363 146.167 39.623 146.54C40.2096 146.9 40.863 147.08 41.583 147.08C42.3296 147.08 42.9896 146.9 43.563 146.54C44.1496 146.167 44.6096 145.667 44.943 145.04C45.2763 144.413 45.443 143.693 45.443 142.88ZM49.7933 148C49.6066 148 49.4599 147.94 49.3533 147.82C49.2466 147.7 49.1933 147.56 49.1933 147.4V138.44C49.1933 138.28 49.2466 138.14 49.3533 138.02C49.4733 137.9 49.6199 137.84 49.7933 137.84C49.9666 137.84 50.1066 137.9 50.2133 138.02C50.3333 138.14 50.3933 138.28 50.3933 138.44V141.44L50.0933 141.5C50.1333 141.033 50.2466 140.573 50.4333 140.12C50.6333 139.653 50.8999 139.227 51.2333 138.84C51.5666 138.453 51.9599 138.14 52.4133 137.9C52.8799 137.66 53.3999 137.54 53.9733 137.54C54.2133 137.54 54.4466 137.593 54.6733 137.7C54.8999 137.793 55.0133 137.953 55.0133 138.18C55.0133 138.38 54.9599 138.533 54.8533 138.64C54.7466 138.747 54.6199 138.8 54.4733 138.8C54.3533 138.8 54.2199 138.767 54.0733 138.7C53.9399 138.633 53.7599 138.6 53.5333 138.6C53.1599 138.6 52.7866 138.713 52.4133 138.94C52.0399 139.153 51.6999 139.447 51.3933 139.82C51.0866 140.193 50.8399 140.613 50.6533 141.08C50.4799 141.533 50.3933 141.993 50.3933 142.46V147.4C50.3933 147.56 50.3333 147.7 50.2133 147.82C50.0933 147.94 49.9533 148 49.7933 148ZM61.0594 148.2C60.0327 148.2 59.126 147.98 58.3394 147.54C57.5527 147.1 56.9394 146.487 56.4994 145.7C56.0594 144.913 55.8394 143.993 55.8394 142.94C55.8394 141.807 56.0594 140.84 56.4994 140.04C56.9527 139.24 57.5327 138.627 58.2394 138.2C58.9594 137.76 59.7194 137.54 60.5194 137.54C61.106 137.54 61.6727 137.647 62.2194 137.86C62.7794 138.06 63.2727 138.367 63.6994 138.78C64.1394 139.18 64.486 139.673 64.7394 140.26C65.006 140.847 65.1527 141.527 65.1794 142.3C65.166 142.46 65.0994 142.6 64.9794 142.72C64.8594 142.827 64.7194 142.88 64.5594 142.88H56.5394L56.2994 141.8H64.1794L63.9194 142.04V141.64C63.866 141.013 63.666 140.48 63.3194 140.04C62.9727 139.6 62.5527 139.267 62.0594 139.04C61.566 138.813 61.0527 138.7 60.5194 138.7C60.1194 138.7 59.706 138.78 59.2794 138.94C58.866 139.1 58.486 139.353 58.1394 139.7C57.806 140.033 57.5327 140.467 57.3194 141C57.106 141.52 56.9994 142.14 56.9994 142.86C56.9994 143.647 57.1594 144.36 57.4794 145C57.7994 145.64 58.2594 146.147 58.8594 146.52C59.4727 146.893 60.1994 147.08 61.0394 147.08C61.506 147.08 61.926 147.013 62.2994 146.88C62.6727 146.747 62.9994 146.573 63.2794 146.36C63.5594 146.133 63.7927 145.9 63.9794 145.66C64.126 145.54 64.2727 145.48 64.4194 145.48C64.5527 145.48 64.666 145.533 64.7594 145.64C64.866 145.747 64.9194 145.867 64.9194 146C64.9194 146.16 64.8527 146.3 64.7194 146.42C64.3194 146.9 63.7994 147.32 63.1594 147.68C62.5194 148.027 61.8194 148.2 61.0594 148.2Z" fill="black"/>
<path d="M23.248 74.964C22.552 74.964 22.012 74.784 21.628 74.424C21.268 74.04 21.088 73.5 21.088 72.804V72.192C21.088 71.496 21.268 70.968 21.628 70.608C22.012 70.224 22.552 70.032 23.248 70.032H23.716C24.412 70.032 24.94 70.224 25.3 70.608C25.684 70.968 25.876 71.496 25.876 72.192V72.804C25.876 73.5 25.684 74.04 25.3 74.424C24.94 74.784 24.412 74.964 23.716 74.964H23.248ZM32.2128 74.964C31.5168 74.964 30.9768 74.784 30.5928 74.424C30.2328 74.04 30.0528 73.5 30.0528 72.804V72.192C30.0528 71.496 30.2328 70.968 30.5928 70.608C30.9768 70.224 31.5168 70.032 32.2128 70.032H32.6808C33.3768 70.032 33.9048 70.224 34.2648 70.608C34.6488 70.968 34.8408 71.496 34.8408 72.192V72.804C34.8408 73.5 34.6488 74.04 34.2648 74.424C33.9048 74.784 33.3768 74.964 32.6808 74.964H32.2128ZM41.1777 74.964C40.4817 74.964 39.9417 74.784 39.5577 74.424C39.1977 74.04 39.0177 73.5 39.0177 72.804V72.192C39.0177 71.496 39.1977 70.968 39.5577 70.608C39.9417 70.224 40.4817 70.032 41.1777 70.032H41.6457C42.3417 70.032 42.8697 70.224 43.2297 70.608C43.6137 70.968 43.8057 71.496 43.8057 72.192V72.804C43.8057 73.5 43.6137 74.04 43.2297 74.424C42.8697 74.784 42.3417 74.964 41.6457 74.964H41.1777Z" fill="black"/>
<defs>
<filter id="filter0_d_248_241" x="0" y="0" width="187" height="187" filterUnits="userSpaceOnUse" color-interpolation-filters="sRGB">
<feFlood flood-opacity="0" result="BackgroundImageFix"/>
<feColorMatrix in="SourceAlpha" type="matrix" values="0 0 0 0 0 0 0 0 0 0 0 0 0 0 0 0 0 0 127 0" result="hardAlpha"/>
<feOffset dy="4"/>
<feGaussianBlur stdDeviation="2"/>
<feComposite in2="hardAlpha" operator="out"/>
<feColorMatrix type="matrix" values="0 0 0 0 0 0 0 0 0 0 0 0 0 0 0 0 0 0 0.1 0"/>
<feBlend mode="normal" in2="BackgroundImageFix" result="effect1_dropShadow_248_241"/>
<feBlend mode="normal" in="SourceGraphic" in2="effect1_dropShadow_248_241" result="shape"/>
</filter>
</defs>
</svg>
