<svg width="40" height="41" viewBox="0 0 40 41" fill="none" xmlns="http://www.w3.org/2000/svg">
<path d="M4.02469 23.4C3.11802 23.4 2.37135 23.1067 1.78469 22.52C1.19802 21.9333 0.904688 21.2133 0.904688 20.36C0.904688 19.5067 1.19802 18.8133 1.78469 18.28C2.37135 17.6933 3.11802 17.4 4.02469 17.4H36.8247C37.7314 17.4 38.478 17.6933 39.0647 18.28C39.6514 18.8667 39.9447 19.5867 39.9447 20.44C39.9447 21.2933 39.6514 22.0133 39.0647 22.6C38.478 23.1333 37.7314 23.4 36.8247 23.4H4.02469ZM20.3447 40.12C19.3847 40.12 18.558 39.8 17.8647 39.16C17.2247 38.52 16.9047 37.72 16.9047 36.76V3.72C16.9047 2.70667 17.2247 1.88 17.8647 1.24C18.558 0.599997 19.4114 0.279996 20.4247 0.279996C21.438 0.279996 22.238 0.599997 22.8247 1.24C23.4647 1.88 23.7847 2.70667 23.7847 3.72V36.68C23.7847 37.6933 23.4647 38.52 22.8247 39.16C22.1847 39.8 21.358 40.12 20.3447 40.12Z" fill="#5F8493"/>
</svg>
