<svg width="70" height="32" viewBox="0 0 70 32" fill="none" xmlns="http://www.w3.org/2000/svg">
<rect x="1" y="1" width="67.9981" height="30" rx="9" fill="#FDFDFF" stroke="#FDFDFF" stroke-width="2"/>
<path d="M37.0655 24C36.8922 24 36.7522 23.94 36.6455 23.82C36.5389 23.7 36.4855 23.56 36.4855 23.4V11.66L36.7455 11.82L31.4855 18.78L31.4255 18.56H39.1055C39.2655 18.56 39.3989 18.6133 39.5055 18.72C39.6255 18.8267 39.6855 18.96 39.6855 19.12C39.6855 19.28 39.6255 19.4133 39.5055 19.52C39.3989 19.6267 39.2655 19.68 39.1055 19.68H30.6055C30.4455 19.68 30.3055 19.62 30.1855 19.5C30.0655 19.3667 30.0055 19.22 30.0055 19.06C30.0055 18.9133 30.0522 18.78 30.1455 18.66L36.5855 10.24C36.6522 10.1467 36.7322 10.0867 36.8255 10.06C36.9322 10.02 37.0189 10 37.0855 10C37.2589 10 37.3989 10.06 37.5055 10.18C37.6255 10.3 37.6855 10.44 37.6855 10.6V23.4C37.6855 23.56 37.6255 23.7 37.5055 23.82C37.3855 23.94 37.2389 24 37.0655 24Z" fill="#5F8493"/>
</svg>
