<svg width="71" height="32" viewBox="0 0 71 32" fill="none" xmlns="http://www.w3.org/2000/svg">
<rect x="1.8584" y="1" width="67.9981" height="30" rx="9" stroke="#FDFDFF" stroke-width="2"/>
<path d="M37.9239 24C37.7506 24 37.6106 23.94 37.5039 23.82C37.3973 23.7 37.3439 23.56 37.3439 23.4V11.66L37.6039 11.82L32.3439 18.78L32.2839 18.56H39.9639C40.1239 18.56 40.2573 18.6133 40.3639 18.72C40.4839 18.8267 40.5439 18.96 40.5439 19.12C40.5439 19.28 40.4839 19.4133 40.3639 19.52C40.2573 19.6267 40.1239 19.68 39.9639 19.68H31.4639C31.3039 19.68 31.1639 19.62 31.0439 19.5C30.9239 19.3667 30.8639 19.22 30.8639 19.06C30.8639 18.9133 30.9106 18.78 31.0039 18.66L37.4439 10.24C37.5106 10.1467 37.5906 10.0867 37.6839 10.06C37.7906 10.02 37.8773 10 37.9439 10C38.1173 10 38.2573 10.06 38.3639 10.18C38.4839 10.3 38.5439 10.44 38.5439 10.6V23.4C38.5439 23.56 38.4839 23.7 38.3639 23.82C38.2439 23.94 38.0973 24 37.9239 24Z" fill="#FDFDFF"/>
</svg>
